<svg width="24" height="25" viewBox="0 0 24 25" fill="none" xmlns="http://www.w3.org/2000/svg">
<path d="M21.47 19.5V5.5C21.47 3.5 20.47 2.5 18.47 2.5H14.47C12.47 2.5 11.47 3.5 11.47 5.5V19.5C11.47 21.5 12.47 22.5 14.47 22.5H18.47C20.47 22.5 21.47 21.5 21.47 19.5Z" stroke="#cddc39" stroke-width="1.5" stroke-linecap="round"/>
<path d="M11.47 6.5H16.47" stroke="#cddc39" stroke-width="1.5" stroke-linecap="round"/>
<path d="M11.47 18.5H15.47" stroke="#cddc39" stroke-width="1.5" stroke-linecap="round"/>
<path d="M11.47 14.45L16.47 14.5" stroke="#cddc39" stroke-width="1.5" stroke-linecap="round"/>
<path d="M11.47 10.5H14.47" stroke="#cddc39" stroke-width="1.5" stroke-linecap="round"/>
<path d="M5.49003 2.5C3.86003 2.5 2.53003 3.83 2.53003 5.45V18.41C2.53003 18.86 2.72003 19.54 2.95003 19.93L3.77003 21.29C4.71003 22.86 6.26003 22.86 7.20003 21.29L8.02003 19.93C8.25003 19.54 8.44003 18.86 8.44003 18.41V5.45C8.44003 3.83 7.11003 2.5 5.49003 2.5Z" stroke="#cddc39" stroke-width="1.5" stroke-linecap="round"/>
<path d="M8.44003 7.5H2.53003" stroke="#cddc39" stroke-width="1.5" stroke-linecap="round"/>
</svg>
