<svg width="105" height="102" viewBox="0 0 105 102" fill="none" xmlns="http://www.w3.org/2000/svg">
<path d="M26.25 42.5V34C26.25 19.9325 30.625 8.5 52.5 8.5C74.375 8.5 78.75 19.9325 78.75 34V42.5" stroke="#292D32" stroke-width="1.5" stroke-linecap="round" stroke-linejoin="round"/>
<path d="M52.5 78.625C58.5406 78.625 63.4375 73.868 63.4375 68C63.4375 62.132 58.5406 57.375 52.5 57.375C46.4594 57.375 41.5625 62.132 41.5625 68C41.5625 73.868 46.4594 78.625 52.5 78.625Z" stroke="#292D32" stroke-width="1.5" stroke-linecap="round" stroke-linejoin="round"/>
<path d="M74.375 93.5H30.625C13.125 93.5 8.75 89.25 8.75 72.25V63.75C8.75 46.75 13.125 42.5 30.625 42.5H74.375C91.875 42.5 96.25 46.75 96.25 63.75V72.25C96.25 89.25 91.875 93.5 74.375 93.5Z" stroke="#292D32" stroke-width="1.5" stroke-linecap="round" stroke-linejoin="round"/>
</svg>
